<svg xmlns="http://www.w3.org/2000/svg" viewbox="0 0 1448 208" width="1450px" height="208px" shape-rendering="geometricPrecision" text-rendering="geometricPrecision"><defs>	<linearGradient gradientunits="userSpaceOnUse" x1="339.35" y1="894.62" x2="339.35" y2="1102.62" id="gradient-0" gradientTransform="matrix(0.48429, -0.87489, 1.06616, 0.90262, -1217.88049, -510.57703)"><stop offset="0" stop-color="#ffffff"></stop><stop offset="0.26" stop-color="#ffffff"></stop><stop offset="0.52" stop-color="#ffffff"></stop><stop offset="0.7" stop-color="#ffffff" stop-opacity="0.04"></stop><stop offset="0.88" stop-color="#ffffff" stop-opacity="0"></stop><stop offset="0.88" stop-color="#ffffff"></stop><stop offset="1" stop-color="#ffffff"></stop></linearGradient></defs><path d="M 0 0 L 50.1 0 L 117.1 126 L 187.09 0 L 236.09 0 L 114.06 207.74 L 0 0 Z" fill="url(#gradient-0)" clip-rule="evenodd" fill-rule="evenodd" opacity="1" id="v"></path><path d="M 297.22 43.48 L 422.22 43.48 L 422.11 164.82 L 297.22 164.82 L 297.22 43.48 Z M 296.22 0.03 L 251.23 43.48 L 251.4 164.82 L 296.22 207.74 L 421.22 207.74 L 465.91 164.82 L 466.09 43.48 L 421.22 0.03 L 296.22 0.03 Z" fill="#ffffff" clip-rule="evenodd" fill-rule="evenodd" opacity="1" id="o"></path><path d="M 509.21 0.03 L 670.06 0 L 711.06 42 L 711.06 100 L 682.06 127 L 673.06 134 L 665.06 134 L 720.93 207.74 L 669.2 207.74 L 574.2 92.03 L 664.2 92.03 L 664.2 44.03 L 554.21 43.03 L 554.21 207.74 L 509.21 207.74 L 509.21 0.03 Z" fill="#ffffff" clip-rule="evenodd" fill-rule="evenodd" opacity="1" id="r"></path><path d="M 754.05 0 L 904.04 122.03 L 904 0 L 945.1 0 L 945.04 208.03 L 797.05 86.03 L 797.05 207.74 L 754.05 207.74 L 754.05 0 Z" fill="#ffffff" clip-rule="evenodd" fill-rule="evenodd" opacity="1" id="n"></path><path d="M 1094.85 0 L 1222.19 207.74 L 1056.03 207.74 L 1079.03 165 L 1148.03 165 L 1096.03 76 L 1018.77 207.74 L 968.04 207.74 L 1094.85 0 Z" fill="#ffffff" clip-rule="evenodd" fill-rule="evenodd" opacity="1" id="a"></path><path d="M 1273.02 0 L 1448 0 L 1407.01 43 L 1271.02 43.48 L 1271.02 162 L 1275.02 164.82 L 1406.01 164.82 L 1448 207.74 L 1272.02 207.74 L 1227.49 164.82 L 1226.89 43.48 L 1273.02 0 Z" fill="#ffffff" clip-rule="evenodd" fill-rule="evenodd" opacity="1" id="c"></path></svg> 