<?xml version="1.0" encoding="utf-8"?>
<svg version="1.1" viewBox="0 0 2048 2048" width="2048" height="2048" xmlns="http://www.w3.org/2000/svg"><defs><linearGradient gradientUnits="userSpaceOnUse" x1="429" y1="920" x2="429" y2="1128" id="gradient-0" gradientTransform="matrix(0.47087, -0.88219, 0.72089, 0.53957, -537.6485, 802.0551)"><stop offset="0" style=""/><stop offset="0.29" style=""/><stop offset="0.64" style="stop-opacity: 0.22;"/><stop offset="0.8" style="stop-color: rgb(255, 255, 255); stop-opacity: 0;"/><stop offset="0.8" style="stop-color: rgb(255, 255, 255);"/><stop offset="0.8" style=""/><stop offset="1" style=""/></linearGradient></defs><path d="M 311 920 L 361 920 L 428 1046 L 498 920 L 547 920 L 426 1128 L 311 920 Z" style="filter: none; fill: url(&quot;#gradient-0&quot;);"/><path d="M 596 963 L 725 963 L 725 1084 L 596 1084 L 596 963 Z M 598 920 L 552 968 L 552 1082 L 600 1127 L 723 1127 L 768 1081 L 769 966 L 723 920 L 598 920 Z" style=""/><path transform="translate(809,920)" d="M 0 0 L 158 0 L 199 42 L 199 100 L 170 127 L 161 134 L 153 134 L 209 206 L 157 206 L 65 92 L 153 92 L 154 43 L 43 43 L 43 207 L 0 206 L 0 0 Z" style=""/><path transform="translate(1049,918)" d="M -1 -1 L 149 123 L 149 2 L 190 2 L 190 209 L 42 87 L 42 208 L -1 208 L -1 -1 Z" style=""/><path transform="translate(1384,915)" d="M 0 0 L 127 212 L -39 212 L -16 170 L 53 170 L 1 81 L -76 212 L -127 212 L 0 0 Z" style=""/><path transform="translate(1562,920)" d="M 0 0 L 175 0 L 134 43 L -2 44 L -2 162 L 2 164 L 133 165 L 175 207 L -1 206 L -46 161 L -46 46 L 0 0 Z" style=""/></svg>